
<svg xmlns="http://www.w3.org/2000/svg" xmlns:xlink="http://www.w3.org/1999/xlink" width="16px" height="16px" viewBox="0 0 16 16" version="1.1">

<path style=" stroke:none;fill-rule:nonzero;fill:rgb(0%,0%,0%);fill-opacity:1;" d="M 14.355469 4.742188 C 14.367188 4.882812 14.367188 5.027344 14.367188 5.167969 C 14.367188 9.503906 11.066406 14.496094 5.035156 14.496094 C 3.179688 14.496094 1.449219 13.960938 0 13.027344 C 0.261719 13.058594 0.519531 13.066406 0.789062 13.066406 C 2.324219 13.066406 3.738281 12.550781 4.863281 11.664062 C 3.417969 11.632812 2.214844 10.691406 1.800781 9.394531 C 2 9.417969 2.199219 9.441406 2.414062 9.441406 C 2.710938 9.441406 3.003906 9.402344 3.28125 9.332031 C 1.777344 9.027344 0.652344 7.707031 0.652344 6.113281 L 0.652344 6.070312 C 1.085938 6.316406 1.59375 6.46875 2.132812 6.488281 C 1.25 5.898438 0.667969 4.894531 0.667969 3.753906 C 0.667969 3.148438 0.832031 2.589844 1.117188 2.101562 C 2.730469 4.089844 5.15625 5.394531 7.878906 5.53125 C 7.824219 5.289062 7.800781 5.035156 7.800781 4.78125 C 7.800781 2.972656 9.257812 1.503906 11.074219 1.503906 C 12.023438 1.503906 12.875 1.898438 13.472656 2.539062 C 14.214844 2.398438 14.925781 2.121094 15.554688 1.746094 C 15.308594 2.507812 14.789062 3.148438 14.113281 3.554688 C 14.773438 3.480469 15.410156 3.300781 16 3.042969 C 15.554688 3.695312 14.996094 4.273438 14.355469 4.742188 Z M 14.355469 4.742188 "/>

</svg>
